<svg width="169" height="53" viewBox="0 0 169 53" fill="none" xmlns="http://www.w3.org/2000/svg">
<path d="M20.0577 47.2469H17.4347V34.8262H15.6714V32.5228H17.3466V32.082C17.3466 30.5721 17.7654 29.4369 18.603 28.6765C19.4406 27.916 20.697 27.5303 22.3611 27.5303V29.9659H22.1297C21.3472 29.9659 20.7851 30.1423 20.4435 30.5059C20.1018 30.8696 19.9365 31.4648 19.9365 32.3024V32.5118H22.3611V34.8152H20.0577V47.2469Z" fill="#808285"/>
<path d="M38.2862 47.2469H35.4649V30.3847H31.8169V27.7617H41.9342V30.3847H38.2862V47.2469Z" fill="#034694"/>
<path d="M71.4491 42.2328C70.8319 44.0072 69.9172 45.3517 68.7049 46.2665C67.4925 47.1812 66.0157 47.6331 64.2744 47.6331C63.1723 47.6331 62.1804 47.4457 61.2877 47.071C60.395 46.6963 59.5905 46.1232 58.8631 45.3628C58.1798 44.6464 57.6398 43.7978 57.254 42.839C56.8683 41.8801 56.6699 40.8993 56.6699 39.9074C56.6699 38.8824 56.8463 37.9236 57.1989 37.0309C57.5516 36.1382 58.0696 35.3116 58.7529 34.5732C59.5133 33.7576 60.362 33.1515 61.3098 32.7327C62.2576 32.3139 63.2715 32.1045 64.3405 32.1045C66.0268 32.1045 67.4925 32.5674 68.7269 33.5042C69.9612 34.4299 70.865 35.7414 71.427 37.4276H68.5175C68.0546 36.5239 67.4595 35.8516 66.7211 35.4108C65.9937 34.97 65.112 34.7385 64.0981 34.7385C62.7866 34.7385 61.6735 35.2345 60.7587 36.2263C59.844 37.2182 59.3921 38.4416 59.3921 39.8963C59.3921 41.3732 59.855 42.5965 60.7808 43.5774C61.7065 44.5582 62.8637 45.0432 64.2413 45.0432C65.1671 45.0432 66.0047 44.8007 66.7541 44.3158C67.5036 43.8308 68.0877 43.1365 68.5065 42.2438H71.4491V42.2328Z" fill="#034694"/>
<path d="M75.9124 47.2473H73.2563V27.7622H75.9124V34.1985C76.3422 33.5593 76.8933 33.0853 77.5766 32.7657C78.2599 32.4461 79.0534 32.2808 79.9681 32.2808C81.7535 32.2808 83.1422 32.8539 84.1341 34.0001C85.126 35.1463 85.6219 36.7443 85.6219 38.8053V47.2473H82.9659V39.6649C82.9659 38.0338 82.6903 36.8215 82.1393 36.028C81.5882 35.2344 80.7396 34.8377 79.6045 34.8377C78.9101 34.8377 78.293 35.003 77.7639 35.3226C77.2349 35.6422 76.8051 36.1051 76.4855 36.7113C76.2871 37.075 76.1549 37.5268 76.0667 38.0448C75.9785 38.5738 75.9455 39.4114 75.9455 40.5576V47.2473H75.9124Z" fill="#034694"/>
<path d="M90.5379 47.2473H87.8818V32.5232H90.4387V34.1984C90.9898 33.5372 91.5959 33.0522 92.2682 32.7436C92.9295 32.4351 93.6899 32.2808 94.5495 32.2808C96.4782 32.2808 97.955 32.8428 98.98 33.978C100.005 35.1132 100.523 36.7332 100.523 38.8493V47.2363H97.8669V39.4224C97.8669 37.8574 97.5803 36.7002 96.9962 35.9508C96.4231 35.2013 95.5194 34.8156 94.3071 34.8156C92.9846 34.8156 92.0257 35.2564 91.4416 36.1491C90.8465 37.0418 90.5489 38.4966 90.5489 40.5465V47.2473H90.5379Z" fill="#808285"/>
<path d="M121.186 27.7617H118.552V47.2469H121.186V27.7617Z" fill="#808285"/>
<path d="M154.613 32.5229H157.456L161.435 43.4888L165.744 32.5229H168.587L160.674 52.0081H157.875L159.925 46.8282L154.613 32.5229Z" fill="#808285"/>
<path d="M0 14.2171H2.52381C2.5679 15.22 2.86546 16.0245 3.41651 16.6307C3.96757 17.2369 4.68393 17.5344 5.56561 17.5344C6.53546 17.5344 7.30693 17.2369 7.89104 16.6307C8.47515 16.0245 8.7617 15.22 8.7617 14.2171C8.7617 13.3354 8.5523 12.6521 8.12248 12.1672C7.69266 11.6823 6.79996 11.2304 5.44438 10.8116C5.37825 10.7896 5.25702 10.7675 5.08069 10.7234C3.4606 10.2826 2.28135 9.56623 1.55396 8.57434C1.22333 8.1335 0.980871 7.67062 0.815556 7.17468C0.650241 6.67873 0.573093 6.14972 0.573093 5.58765C0.573093 3.92348 1.06904 2.5679 2.04991 1.54294C3.0418 0.517989 4.33126 0 5.9293 0C7.41714 0 8.60741 0.462883 9.52215 1.38865C10.4369 2.31441 10.9328 3.58183 11.032 5.17987H8.39801C8.35392 4.39738 8.08942 3.76918 7.61552 3.29528C7.14161 2.82138 6.54648 2.57892 5.83011 2.57892C5.05864 2.57892 4.43045 2.84342 3.94552 3.37243C3.4606 3.90144 3.21814 4.58474 3.21814 5.43336C3.21814 5.73092 3.26222 6.00645 3.35039 6.25993C3.43856 6.51341 3.57081 6.75588 3.76919 6.98732C4.15492 7.43918 4.97048 7.83594 6.22687 8.16656C6.79996 8.32086 7.25182 8.45311 7.56041 8.5523C8.83885 9.03723 9.8087 9.73155 10.481 10.6463C11.1422 11.561 11.4729 12.6631 11.4729 13.9526C11.4729 15.8372 10.9439 17.3471 9.87482 18.4932C8.80578 19.6394 7.38408 20.2235 5.62072 20.2235C3.95654 20.2235 2.61198 19.6725 1.576 18.5704C0.551051 17.4683 0.022042 16.0245 0 14.2171Z" fill="#034694"/>
<path d="M15.8474 0.352539H13.2134V3.39434H15.8474V0.352539Z" fill="#034694"/>
<path d="M15.8474 5.12451H13.2134V19.8376H15.8474V5.12451Z" fill="#034694"/>
<path d="M20.906 0.352539H18.272V19.8377H20.906V0.352539Z" fill="#034694"/>
<path d="M25.9656 0.352539H23.3315V3.39434H25.9656V0.352539Z" fill="#034694"/>
<path d="M25.9656 5.12451H23.3315V19.8376H25.9656V5.12451Z" fill="#034694"/>
<path d="M42.3749 14.8234C41.7577 16.5978 40.843 17.9424 39.6306 18.8571C38.4183 19.7718 36.9415 20.2237 35.2002 20.2237C34.0981 20.2237 33.1062 20.0363 32.2135 19.6506C31.3208 19.2759 30.5163 18.7028 29.7889 17.9424C29.1056 17.226 28.5656 16.3774 28.1798 15.4185C27.7941 14.4597 27.5957 13.4788 27.5957 12.487C27.5957 11.462 27.772 10.5032 28.1247 9.61047C28.4774 8.71777 28.9954 7.8912 29.6787 7.15279C30.4391 6.34826 31.2877 5.73108 32.2356 5.31228C33.1834 4.89348 34.1973 4.68408 35.2663 4.68408C36.9525 4.68408 38.4183 5.14696 39.6527 6.08375C40.887 7.02054 41.7908 8.32102 42.3528 10.0072H39.4433C38.9804 9.10351 38.3853 8.43122 37.6469 7.99038C36.9195 7.54954 36.0378 7.3181 35.0239 7.3181C33.7124 7.3181 32.5992 7.81405 31.6845 8.80594C30.7698 9.79783 30.3179 11.0212 30.3179 12.4759C30.3179 13.9417 30.7808 15.1761 31.7065 16.1569C32.6323 17.1378 33.7895 17.6338 35.1782 17.6338C36.1039 17.6338 36.9415 17.3913 37.6909 16.9064C38.4404 16.4215 39.0245 15.7271 39.4433 14.8344H42.3749V14.8234Z" fill="#034694"/>
<path d="M62.8626 19.8378H60.2065V5.12479H62.7524V6.79998C63.3034 6.13872 63.9096 5.65379 64.5819 5.34521C65.2431 5.03662 66.0036 4.88232 66.8632 4.88232C68.7919 4.88232 70.2687 5.45542 71.2937 6.57956C72.3186 7.71472 72.8366 9.33481 72.8366 11.4508V19.8378H70.1806V12.0239C70.1806 10.459 69.894 9.30175 69.3099 8.55232C68.7258 7.80289 67.8331 7.42818 66.6208 7.42818C65.2982 7.42818 64.3394 7.86902 63.7553 8.76172C63.1602 9.65442 62.8626 11.1092 62.8626 13.1591V19.8378Z" fill="#034694"/>
<path d="M85.776 0.352539H82.9546V19.8377H85.776V0.352539Z" fill="#808285"/>
<path d="M90.9886 19.8383H88.3325V5.12528H90.8894V6.80047C91.4404 6.13921 92.0466 5.65428 92.7189 5.34569C93.3801 5.03711 94.1406 4.88281 95.0002 4.88281C96.9289 4.88281 98.4057 5.45591 99.4307 6.58005C100.456 7.71521 100.974 9.3353 100.974 11.4513V19.8383H98.3176V12.0244C98.3176 10.4594 98.031 9.30224 97.4469 8.55281C96.8628 7.80338 95.9701 7.42867 94.7578 7.42867C93.4352 7.42867 92.4764 7.86951 91.8923 8.76221C91.2972 9.65491 90.9996 11.1097 90.9996 13.1596V19.8383H90.9886Z" fill="#808285"/>
<path d="M102.319 15.066H104.81C104.81 15.8485 105.03 16.4877 105.46 16.9947C105.89 17.5017 106.43 17.7551 107.08 17.7551C107.697 17.7551 108.204 17.5678 108.601 17.182C108.998 16.8073 109.196 16.3224 109.196 15.7273C109.196 15.2093 109.053 14.7684 108.777 14.4158C108.491 14.0631 108.039 13.7545 107.411 13.501C107.201 13.4129 106.893 13.2916 106.507 13.1484C105.46 12.7516 104.799 12.443 104.512 12.2116C103.983 11.7928 103.597 11.3189 103.344 10.7899C103.09 10.2609 102.969 9.64367 102.969 8.94935C102.969 7.75908 103.388 6.73413 104.225 5.89653C105.063 5.05893 106.077 4.64014 107.278 4.64014C108.535 4.64014 109.538 5.00383 110.276 5.74224C111.014 6.48064 111.422 7.5056 111.488 8.82812H108.942C108.898 8.28809 108.722 7.85827 108.402 7.5607C108.094 7.26314 107.675 7.10884 107.146 7.10884C106.672 7.10884 106.275 7.27416 105.956 7.59377C105.636 7.91337 105.482 8.32115 105.482 8.80608C105.482 9.62163 106.198 10.2939 107.62 10.8229C108.017 10.9772 108.336 11.0984 108.568 11.1866C109.692 11.6385 110.496 12.2116 110.981 12.8839C111.455 13.5561 111.698 14.4709 111.698 15.595C111.698 16.9175 111.257 18.0086 110.364 18.8903C109.471 19.761 108.347 20.2018 106.992 20.2018C105.625 20.2018 104.523 19.7389 103.685 18.8242C102.859 17.9205 102.407 16.6641 102.319 15.066Z" fill="#808285"/>
<path d="M114.178 19.8377V7.53824H112.095V5.12464H114.178V0.352539H116.812V5.12464H118.895V7.53824H116.812V19.8377H114.178Z" fill="#808285"/>
<path d="M122.696 0.352539H120.062V3.39434H122.696V0.352539Z" fill="#808285"/>
<path d="M122.696 5.12451H120.062V19.8376H122.696V5.12451Z" fill="#808285"/>
<path d="M126.025 19.8377V7.53824H123.942V5.12464H126.025V0.352539H128.659V5.12464H130.742V7.53824H128.659V19.8377H126.025Z" fill="#808285"/>
<path d="M144.198 19.8376H141.652V18.1954C141.123 18.8677 140.539 19.3526 139.878 19.6833C139.228 20.0029 138.489 20.1682 137.674 20.1682C135.822 20.1682 134.378 19.5951 133.364 18.4379C132.351 17.2917 131.833 15.6716 131.833 13.5886V5.12451H134.489V12.8282C134.489 14.4152 134.775 15.6055 135.326 16.399C135.888 17.1925 136.726 17.5893 137.85 17.5893C138.544 17.5893 139.161 17.424 139.702 17.1043C140.242 16.7737 140.682 16.3108 141.002 15.7047C141.2 15.33 141.333 14.8891 141.421 14.3711C141.509 13.8531 141.542 13.0156 141.542 11.8694V5.12451H144.176V19.8376H144.198Z" fill="#808285"/>
<path d="M147.571 19.8377V7.53824H145.488V5.12464H147.571V0.352539H150.205V5.12464H152.288V7.53824H150.205V19.8377H147.571Z" fill="#808285"/>
<path d="M104.666 39.8742C104.666 41.351 105.129 42.5743 106.066 43.5552C107.003 44.536 108.16 45.032 109.548 45.032C110.915 45.032 112.061 44.536 112.976 43.5552C113.902 42.5633 114.365 41.34 114.365 39.8521C114.365 38.3643 113.902 37.1299 112.976 36.1601C112.05 35.1902 110.904 34.7053 109.515 34.7053C108.138 34.7053 106.992 35.2013 106.055 36.1821C105.129 37.152 104.666 38.3863 104.666 39.8742ZM101.922 39.8962C101.922 38.8492 102.098 37.8794 102.451 36.9756C102.804 36.0719 103.322 35.2564 104.005 34.54C104.743 33.7465 105.581 33.1403 106.507 32.7105C107.432 32.2807 108.391 32.0713 109.394 32.0713C110.463 32.0713 111.455 32.2586 112.37 32.6444C113.285 33.0301 114.111 33.5922 114.85 34.3416C115.566 35.08 116.128 35.9176 116.514 36.8434C116.899 37.7691 117.098 38.728 117.098 39.7199C117.098 40.7228 116.921 41.7036 116.558 42.6625C116.194 43.6213 115.687 44.4479 115.037 45.1642C114.287 45.9798 113.45 46.608 112.513 47.0268C111.576 47.4456 110.584 47.666 109.537 47.666C108.457 47.666 107.465 47.4676 106.551 47.0819C105.636 46.6962 104.82 46.1231 104.104 45.3626C103.421 44.6352 102.881 43.7976 102.495 42.8388C102.12 41.88 101.922 40.8991 101.922 39.8962Z" fill="#808285"/>
<path d="M46.1888 12.465C46.1888 13.9308 46.6517 15.1651 47.5884 16.146C48.5252 17.1269 49.6824 17.6228 51.0711 17.6228C52.4377 17.6228 53.5839 17.1269 54.4986 16.146C55.4244 15.1541 55.8873 13.9308 55.8873 12.4429C55.8873 10.9551 55.4244 9.72075 54.4986 8.7509C53.5728 7.78106 52.4267 7.29613 51.038 7.29613C49.6604 7.29613 48.5142 7.79207 47.5774 8.77294C46.6627 9.75381 46.1888 10.9882 46.1888 12.465ZM43.4556 12.498C43.4556 11.451 43.6319 10.4812 43.9846 9.57748C44.3372 8.67376 44.8552 7.8582 45.5385 7.13081C46.2769 6.3373 47.1145 5.73115 48.0403 5.30133C48.9661 4.87151 49.9359 4.66211 50.9278 4.66211C51.9968 4.66211 52.9887 4.84946 53.9035 5.2352C54.8182 5.62094 55.6448 6.18301 56.3832 6.93244C57.0996 7.67084 57.6616 8.50844 58.0474 9.43421C58.4331 10.36 58.6315 11.3188 58.6315 12.3107C58.6315 13.3136 58.4552 14.2945 58.0915 15.2533C57.7278 16.2121 57.2208 17.0387 56.5706 17.7551C55.8211 18.5706 54.9835 19.1988 54.0467 19.6176C53.11 20.0364 52.1181 20.2568 51.0711 20.2568C49.991 20.2568 48.9991 20.0585 48.0844 19.6727C47.1696 19.287 46.3541 18.7139 45.6377 17.9534C44.9544 17.2261 44.4144 16.3885 44.0287 15.4296C43.6429 14.4708 43.4556 13.4899 43.4556 12.498Z" fill="#034694"/>
<path d="M164.918 11.0652C164.588 9.85287 164.015 8.91608 163.21 8.25482C162.394 7.59356 161.425 7.26293 160.3 7.26293C159.143 7.26293 158.14 7.60458 157.281 8.28788C156.432 8.97118 155.848 9.89695 155.528 11.0762H164.918V11.0652ZM155.44 13.4567C155.661 14.6911 156.223 15.683 157.104 16.4544C157.986 17.2149 159.044 17.6006 160.267 17.6006C161.138 17.6006 161.943 17.3912 162.659 16.9724C163.375 16.5536 163.948 15.9585 164.378 15.187H167.365C166.682 16.8181 165.734 18.0635 164.521 18.9342C163.309 19.8048 161.887 20.2347 160.278 20.2347C159.187 20.2347 158.195 20.0473 157.292 19.6616C156.388 19.2758 155.572 18.7027 154.845 17.9313C154.162 17.2039 153.622 16.3663 153.236 15.4075C152.85 14.4486 152.652 13.4678 152.652 12.4759C152.652 11.4399 152.828 10.47 153.181 9.57734C153.534 8.67362 154.052 7.85806 154.735 7.11965C155.462 6.31512 156.289 5.70897 157.204 5.31221C158.118 4.90443 159.121 4.70605 160.212 4.70605C161.502 4.70605 162.703 5.00362 163.816 5.60978C164.929 6.21593 165.844 7.05353 166.56 8.13359C166.99 8.80587 167.299 9.53325 167.508 10.3268C167.718 11.1203 167.817 12.035 167.817 13.06V13.4788H155.44V13.4567Z" fill="#808285"/>
<path d="M125.387 39.8742C125.387 41.351 125.85 42.5743 126.786 43.5552C127.723 44.536 128.88 45.032 130.269 45.032C131.636 45.032 132.782 44.536 133.697 43.5552C134.622 42.5633 135.085 41.34 135.085 39.8521C135.085 38.3643 134.622 37.1299 133.697 36.1601C132.771 35.1902 131.625 34.7053 130.236 34.7053C128.858 34.7053 127.712 35.2013 126.775 36.1821C125.85 37.152 125.387 38.3863 125.387 39.8742ZM122.643 39.8962C122.643 38.8492 122.819 37.8794 123.172 36.9756C123.524 36.0719 124.042 35.2564 124.726 34.54C125.464 33.7465 126.302 33.1403 127.227 32.7105C128.153 32.2807 129.123 32.0713 130.115 32.0713C131.184 32.0713 132.176 32.2586 133.091 32.6444C134.005 33.0301 134.832 33.5922 135.57 34.3416C136.298 35.08 136.849 35.9176 137.234 36.8434C137.62 37.7691 137.819 38.728 137.819 39.7199C137.819 40.7228 137.642 41.7036 137.278 42.6625C136.915 43.6213 136.408 44.4479 135.758 45.1642C135.008 45.9798 134.171 46.608 133.234 47.0268C132.297 47.4456 131.305 47.666 130.258 47.666C129.178 47.666 128.186 47.4676 127.271 47.0819C126.357 46.6962 125.541 46.1231 124.825 45.3626C124.141 44.6352 123.601 43.7976 123.216 42.8388C122.841 41.88 122.643 40.8991 122.643 39.8962Z" fill="#808285"/>
<path d="M139.505 48.4267H142.326C142.734 49.11 143.274 49.639 143.935 49.9917C144.596 50.3553 145.357 50.5317 146.216 50.5317C147.704 50.5317 148.905 50.0798 149.809 49.1871C150.713 48.2944 151.176 47.1042 151.176 45.6273V45.44C150.503 46.1453 149.743 46.6743 148.905 47.038C148.068 47.4017 147.186 47.5781 146.238 47.5781C144.023 47.5781 142.194 46.8397 140.728 45.3628C139.262 43.886 138.535 42.0345 138.535 39.8193C138.535 38.7833 138.722 37.8024 139.086 36.8767C139.449 35.9509 139.967 35.1353 140.651 34.43C141.389 33.6585 142.194 33.0854 143.075 32.7107C143.957 32.336 144.949 32.1597 146.073 32.1597C147.076 32.1597 147.991 32.336 148.85 32.6997C149.699 33.0524 150.481 33.6034 151.198 34.3198V32.5454H153.854V44.8118C153.854 47.3687 153.193 49.3745 151.859 50.8293C150.526 52.284 148.696 53.0004 146.371 53.0004C144.684 53.0004 143.241 52.6036 142.05 51.7991C140.86 51.0056 140.011 49.8814 139.505 48.4267ZM141.279 39.7972C141.279 41.2851 141.775 42.5415 142.756 43.5444C143.748 44.5473 144.949 45.0542 146.371 45.0542C147.671 45.0542 148.817 44.5473 149.809 43.5333C150.801 42.5194 151.297 41.3402 151.297 39.9846C151.297 38.5408 150.801 37.3065 149.82 36.2705C148.839 35.2455 147.66 34.7276 146.316 34.7276C144.927 34.7276 143.737 35.2235 142.756 36.1934C141.775 37.1742 141.279 38.3755 141.279 39.7972Z" fill="#808285"/>
<path d="M53.0767 38.4746C52.7461 37.2623 52.173 36.3255 51.3685 35.6643C50.5529 35.003 49.5831 34.6724 48.4589 34.6724C47.3017 34.6724 46.2988 35.014 45.4392 35.6973C44.5905 36.3806 44.0064 37.3064 43.6758 38.4857H53.0767V38.4746ZM43.5987 40.8552C43.8191 42.0895 44.3811 43.0814 45.2628 43.8529C46.1445 44.6133 47.2025 44.9991 48.4259 44.9991C49.2965 44.9991 50.101 44.7897 50.8174 44.3709C51.5338 43.9521 52.1069 43.3569 52.5367 42.5855H55.5234C54.8401 44.2166 53.8923 45.462 52.68 46.3326C51.4566 47.1923 50.0459 47.6331 48.4369 47.6331C47.3458 47.6331 46.3539 47.4457 45.4502 47.06C44.5465 46.6743 43.7309 46.1012 43.0035 45.3297C42.3202 44.6133 41.7802 43.7647 41.3945 42.8059C40.9867 41.8471 40.7993 40.8662 40.7993 39.8743C40.7993 38.8383 40.9757 37.8685 41.3283 36.9758C41.681 36.0721 42.199 35.2565 42.8823 34.5181C43.6097 33.7136 44.4362 33.1074 45.351 32.7106C46.2657 32.3029 47.2686 32.1045 48.3597 32.1045C49.6492 32.1045 50.8505 32.4021 51.9636 33.0082C53.0767 33.6033 53.9915 34.452 54.7078 35.532C55.1376 36.2043 55.4462 36.9317 55.6556 37.7252C55.865 38.5187 55.9642 39.4335 55.9642 40.4584V40.8772H43.5987V40.8552Z" fill="#034694"/>
<path d="M2.79941 39.8742C2.79941 41.351 3.26229 42.5743 4.19908 43.5552C5.13586 44.536 6.29307 45.032 7.68171 45.032C9.04832 45.032 10.1945 44.536 11.1092 43.5552C12.035 42.5633 12.4979 41.34 12.4979 39.8521C12.4979 38.3643 12.035 37.1299 11.1092 36.1601C10.1835 35.1902 9.0373 34.7053 7.64865 34.7053C6.27102 34.7053 5.12484 35.2013 4.18805 36.1821C3.26229 37.152 2.79941 38.3863 2.79941 39.8742ZM0.0551758 39.8962C0.0551758 38.8492 0.231511 37.8794 0.584184 36.9756C0.936856 36.0719 1.45484 35.2564 2.13815 34.54C2.87655 33.7465 3.71415 33.1403 4.63991 32.7105C5.56568 32.2807 6.53553 32.0713 7.52742 32.0713C8.59646 32.0713 9.58835 32.2586 10.5031 32.6444C11.4178 33.0301 12.2444 33.5922 12.9828 34.3416C13.7102 35.08 14.2613 35.9176 14.647 36.8434C15.0327 37.7691 15.2311 38.728 15.2311 39.7199C15.2311 40.7228 15.0548 41.7036 14.6911 42.6625C14.3274 43.6213 13.8204 44.4479 13.1702 45.1642C12.4207 45.9798 11.5831 46.608 10.6464 47.0268C9.70958 47.4456 8.71769 47.666 7.67069 47.666C6.59063 47.666 5.59874 47.4676 4.684 47.0819C3.76926 46.6962 2.9537 46.1231 2.23733 45.3626C1.55403 44.6352 1.014 43.7976 0.628269 42.8388C0.253554 41.88 0.0551758 40.8991 0.0551758 39.8962Z" fill="#808285"/>
</svg>
